# xmcd
#
# Track frame offsets:
# 150
# 18684
# 35270
# 52792
# 68754
# 90467
# 103794
# 121704
# 136240
# 154566
# 168265
#
# Disc length: 2490 seconds
#
#
# Revision: 0
# Processed by: cddbd v1.5.1PL0 Copyright (c) Steve Scherf et al.
# Submitted via: FreeRIP 2.942 
#
DISCID=7c09b80b
DTITLE=José Cláudio Machado - Arranchado
DYEAR=2005
DGENRE=Gaúcho
TTITLE0=Prece ao Minuano
TTITLE1=Bica Meu Galo
TTITLE2=Na Paz do Galpão
TTITLE3=Marca Saudade
TTITLE4=Arranchado
TTITLE5=Sistema Antigo
TTITLE6=Alma de Galpão
TTITLE7=Milonga do Campo
TTITLE8=Pássaro Perdido
TTITLE9=O Laço
TTITLE10=Doma Tradicional
EXTD=memphis
EXTT0=
EXTT1=
EXTT2=
EXTT3=
EXTT4=
EXTT5=
EXTT6=
EXTT7=
EXTT8=
EXTT9=
EXTT10=
PLAYORDER=
